<svg xmlns="http://www.w3.org/2000/svg" width="2158.743" height="591.575" viewBox="0 0 2158.743 591.575">
  <g id="Grupo_551" data-name="Grupo 551" transform="translate(224.776 -4124.164)">
    <g id="sneak-logo-v01" transform="translate(406.41 3231.672)">
      <path id="Trazado_59" data-name="Trazado 59" d="M397.221,327.106c-21.852,6.112-41.011,12.786-60.732,16.674C304.151,350.192,271.5,355,238.933,360.061c-10.6,1.682-19.608-.635-25.5-11.085-1.308-2.318-6.318-3.589-9.608-3.589-13.384,0-26.768.729-40.152,1.159-2.486.093-5.29.841-7.477,0a67.3,67.3,0,0,1-9.739-6.056c3.028-1.963,5.944-5.4,9.1-5.608,14.58-1.1,29.235-1.552,43.871-1.72,7.477-.093,13.459-.916,18.9-7.365,3.084-3.738,9.776-4.879,15.085-5.888,35.123-6.711,70.34-13.085,105.482-19.609a76.919,76.919,0,0,0,11.122-3.944c-2.449-6.86-4.636-12.917-6.785-19.01-25.048-71.032,20.45-154.625,93.743-171.972,39.1-9.346,76.172,10.43,91.107,49.853,14.562,38.507,4.785,73.125-21.048,103.37-19.534,22.842-45.105,38.021-71.873,51.143-5.234,2.58-10.412,5.271-17.459,8.842,6.617,6.262,11.832,11.888,17.739,16.636,33.647,26.955,62.34,58.227,83.163,96.229,24.3,44.451,34.469,91.5,22.244,141.484-10.973,44.862-39.7,76.64-79.481,97.912-58.414,31.1-117.763,33.647-174.57-3.738-63.966-41.965-85.444-129.969-49.218-193.3,26.88-47.012,80.939-74.06,132.119-66.134,47.778,7.477,85.126,50.956,83.817,97.743-.729,26.431-19.534,52.863-44.507,61.555a22.543,22.543,0,0,1-14.337.131c-6.374-2.449-11.122-1.5-16.506,2-9.683,6.243-19.5,12.337-29.684,17.683-2.711,1.4-7.01-.224-10.58-.449,1.458-3.29,2-7.888,4.524-9.645,9.7-6.729,20.356-12.113,29.908-18.954a22.3,22.3,0,0,0,8.206-12.019,24.132,24.132,0,0,1,11.776-16.823c20.431-12.188,24.468-27.927,12.991-48.919-14.861-27.2-44.152-38.563-75.294-29.2-64.508,19.384-88.79,94.584-49.087,151.989,29.759,42.993,78.939,59.405,132.231,42.713,46.638-14.6,79.724-43.292,89.145-93.463,5.776-30.768-.822-60.1-13.926-88.061-16.823-35.983-42.264-65.087-72.527-90.36-8.6-7.159-16.636-14.954-25.142-22.3-6.935-5.944-47.819-58.1-39.651-63.859C353.122,285.958,394.361,330.658,397.221,327.106Zm95.5-137.783c-.243-2.916-.28-5.739-.71-8.486-3.608-23.347-22.3-38.9-42.357-35.329-55.5,9.907-89.182,81.331-61.685,130.362,2.6,4.617,5.253,6.355,10.374,4.112,26.319-11.533,51.554-24.842,72.77-44.619a67.293,67.293,0,0,0,21.609-46.04Z" transform="translate(-777.647 789.407)" fill="#fff"/>
      <path id="Trazado_60" data-name="Trazado 60" d="M295.21,665.62,148.6,525.6c-.272,4.408-.871,9.578-.871,14.721,0,38.094-.3,76.188,0,114.282,0,10.884-5.088,14.367-15.1,14.095s-20.054.762-20.054-13.6V442.852a9.932,9.932,0,0,1,.925-3.537L260.137,579.8c.653-10.367,1.66-19.21,1.687-28.054.163-34.938.327-69.848-.218-104.759-.163-10.884,3.619-15.02,14.2-14.04,9.387.871,21.224-3.156,21.2,13.224-.136,70.284,0,140.567-.136,210.851a46.552,46.552,0,0,1-1.66,8.6Z" transform="translate(200.241 666.027)" fill="#fff"/>
      <path id="Trazado_61" data-name="Trazado 61" d="M622.28,666.869c-22.72,3.183-40.217,4.082-54.855-14.857-17.687-22.884-38.557-43.264-57.821-64.95-3.564-4.027-6.013-9.061-10.53-16.027-18.095,21.768-33.686,38.856-46.8,57.549-4.245,6.068-2.857,16.653-2.721,25.115.326,12.625-6.394,15.129-17.115,15.047s-17.659-1.578-17.6-14.557q.408-103.4,0-206.633c0-12.816,6.721-14.8,17.306-14.721s17.578,1.442,17.414,14.53c-.435,36.706-.163,73.467,0,110.119,0,5.252.626,10.5,1.2,19.7,5.66-5.442,8.925-7.973,11.564-11.075,31.564-37.414,64.325-73.9,93.929-112.786,15.238-20,32.434-23.21,56.515-18.612-3.211,4.462-5.605,8.381-8.544,11.836-25.986,30.856-51.862,61.794-78.229,92.3-6.667,7.7-6.8,13.007.272,20.68,28.6,30.938,56.57,62.583,84.76,93.793C614.253,656.964,617.246,660.828,622.28,666.869Z" transform="translate(905.277 666.085)" fill="#fff"/>
      <path id="Trazado_62" data-name="Trazado 62" d="M215.911,550.34c0-33.55.354-67.1-.19-100.677-.218-12.217,3.918-17.006,16.489-16.843,40.352.517,80.7.435,121.057,0,11.319,0,16.462,3.347,16.462,15.537s-5.252,15.7-16.544,15.51c-28.108-.435-56.243.463-84.351-.381-13.387-.408-17.6,4.544-16.789,17.333a392.212,392.212,0,0,1,0,40.815c-.408,10.013,3.864,14.013,13.469,13.986,17.687,0,35.373.327,53.032,0,10.313,0,16.326,2.939,16.326,14.639s-5.2,15.156-15.891,14.938c-17.687-.354-35.373,0-53.032,0-9.5,0-14.149,3.51-13.768,13.605.517,14.938.653,29.931,0,44.869-.544,11.428,4.354,15.21,15.129,15.1,29.468-.272,58.937,0,88.405,0,14.775,0,18.829,3.891,16.326,17.578-.844,4.49-7.265,11.238-11.238,11.292-44.407.816-88.868.544-133.329.49-10.013,0-11.51-6.585-11.483-14.721Q215.992,602.189,215.911,550.34Z" transform="translate(440.815 666.045)" fill="#fff"/>
      <path id="Trazado_63" data-name="Trazado 63" d="M526.214,664.655c-27.917,8.163-35.645,4.925-45.522-17.387-5.442-12-9.932-24.489-16.326-35.836a20.163,20.163,0,0,0-13.986-9.17c-24-.952-48.053-.136-72.052-.6-8.163-.163-12.272,3.075-15.292,10.286-6.449,15.455-13.415,30.72-20.544,45.9-4.163,8.952-29.033,15.319-35.373,8.381-2.286-2.449-.979-10.095.979-14.312,18.666-40.3,37.877-80.351,56.869-120.513,12.979-27.455,25.849-54.964,38.883-82.392,2.449-5.143,5.442-10.013,8.163-15.047l4.68-.9ZM416.747,502.7l-4.843-1.061c-9.877,22.2-19.755,44.407-30.638,68.923h65.3Z" transform="translate(651.204 666.639)" fill="#fff"/>
      <path id="Trazado_64" data-name="Trazado 64" d="M99.6,675.312c-30.475-.68-56.575-15.376-74.556-40.11-3.537-4.844-10.748-10.585-2.585-17.387,9.8-8.163,22.367-8.163,28.489-.326,16.625,21.387,37.849,30.448,64.569,23.727,15.972-4.027,28.434-12.707,30.747-30.448,2.231-16.952-6.258-29.224-20.625-36.543C113.2,567.911,99.541,564.047,86.7,558.442s-27.21-10.694-38.883-18.884C13.034,515.015,15.4,467.4,51.591,445.085c36.679-22.557,87.644-15.047,113.6,17.387,3.673,4.6,7.156,12.408,5.741,17.224-1.8,6.068-24.761,6.34-29.36.9C127.4,463.778,108.923,460.54,88.6,462.962c-15.292,1.823-27.21,12.081-29.6,24.244-2.721,14.448,3.238,26.067,19.4,33.577,13.932,6.5,29.033,10.476,42.91,17.034,13.415,6.34,27.21,12.9,38.557,22.312,32.326,27.21,28.788,75.426-7.646,96.759a147.293,147.293,0,0,1-31.9,14.856,95.672,95.672,0,0,1-13.221,3.178,70.856,70.856,0,0,1-7.5.381c-.316-.035,2.721-.544,1.192,0Z" transform="translate(-18.711 664.392)" fill="#fff"/>
    </g>
  </g>
</svg>
